<svg height="512pt" viewBox="0 -23 512 512" width="512pt" xmlns="http://www.w3.org/2000/svg" xmlns:xlink="http://www.w3.org/1999/xlink"><linearGradient id="a" gradientTransform="matrix(.323398 0 0 -.323398 0 475.902647)" gradientUnits="userSpaceOnUse" x1="192.437" x2="1390.7578" y1="-120.3798" y2="1077.9673"><stop offset="0" stop-color="#41dfd0"/><stop offset="1" stop-color="#ee83ef"/></linearGradient><path d="m230.398438 286.933594c0-4.714844 3.824218-8.535156 8.535156-8.535156h17.066406c4.710938 0 8.53125 3.820312 8.53125 8.535156 0 4.710937-3.820312 8.53125-8.53125 8.53125h-17.066406c-4.714844 0-8.535156-3.820313-8.535156-8.53125zm59.734374 8.53125h17.066407c4.714843 0 8.535156-3.820313 8.535156-8.53125 0-4.714844-3.820313-8.535156-8.535156-8.535156h-17.066407c-4.710937 0-8.53125 3.820312-8.53125 8.535156 0 4.710937 3.820313 8.53125 8.53125 8.53125zm170.667969-119.464844c2.261719 0 4.433594-.898438 6.03125-2.5l8.535157-8.535156c3.273437-3.390625 3.179687-8.792969-.210938-12.066406-3.308594-3.191407-8.550781-3.191407-11.855469 0l-8.535156 8.535156c-3.332031 3.332031-3.332031 8.734375.003906 12.066406 1.597657 1.601562 3.769531 2.5 6.03125 2.5zm42.667969 25.597656h-17.070312c-4.710938 0-8.53125 3.820313-8.53125 8.535156 0 4.710938 3.820312 8.53125 8.53125 8.53125h17.070312c4.710938 0 8.53125-3.820312 8.53125-8.53125 0-4.714843-3.820312-8.535156-8.53125-8.535156zm-417.238281-64.449218c2.105469 4.214843 7.234375 5.929687 11.449219 3.820312 4.21875-2.105469 5.929687-7.234375 3.824218-11.449219l-8.535156-17.066406c-2.105469-4.21875-7.230469-5.929687-11.449219-3.824219-4.21875 2.105469-5.929687 7.234375-3.824219 11.453125zm328.089843 3.820312c4.214844 2.109375 9.339844.398438 11.449219-3.816406v-.003906l8.535157-17.066407c2.105468-4.21875.394531-9.347656-3.824219-11.453125-4.21875-2.105468-9.34375-.394531-11.449219 3.824219l-8.535156 17.066406c-2.125 4.203125-.441406 9.335938 3.765625 11.464844.019531.007813.039062.019531.058593.027344zm-369.152343 32.53125c3.390625 3.273438 8.792969 3.179688 12.066406-.210938 3.191406-3.304687 3.191406-8.550781 0-11.855468l-8.535156-8.535156c-3.390625-3.273438-8.792969-3.179688-12.066407.210937-3.191406 3.308594-3.191406 8.550781 0 11.855469zm-36.632813 45.164062h17.066406c4.710938 0 8.53125-3.820312 8.53125-8.53125 0-4.714843-3.820312-8.535156-8.53125-8.535156h-17.066406c-4.714844 0-8.535156 3.820313-8.535156 8.535156 0 4.710938 3.820312 8.53125 8.535156 8.53125zm179.199219-90.871093h20.710937c-.96875-2.667969-1.480468-5.484375-1.511718-8.328125 0-14.136719 11.460937-25.597656 25.601562-25.597656h17.066406v-9.386719c-23.089843-4.714844-37.984374-27.25-33.273437-50.339844 4.714844-23.085937 27.25-37.984375 50.339844-33.269531 23.085937 4.710937 37.984375 27.25 33.269531 50.335937-3.417969 16.757813-16.515625 29.851563-33.269531 33.273438v9.386719h17.066406c14.136719 0 25.597656 11.460937 25.597656 25.597656-.03125 2.84375-.539062 5.660156-1.507812 8.328125h16.441406c74.480469 0 132.269531 70.144531 143.089844 135.136719 1.742187 9.0625 6.851562 17.132812 14.300781 22.585937 8.398438 6.441406 13.308594 16.433594 13.277344 27.015625v8.535156c0 4.710938-3.820313 8.53125-8.535156 8.53125h-204.796876v17.070313h179.199219c4.710938 0 8.53125 3.820312 8.53125 8.53125v27.171875c10.191407 3.601562 17.023438 13.21875 17.066407 24.027344v2.246093c.316406 4.566407 2.753906 8.722657 6.589843 11.230469 6.574219 4.832031 10.460938 12.5 10.480469 20.65625v17.066406c0 4.714844-3.824219 8.535156-8.535156 8.535156h-477.867188c-4.710937 0-8.535156-3.820312-8.535156-8.535156v-17.066406c.019531-8.15625 3.90625-15.820312 10.480469-20.648438 3.832031-2.507812 6.269531-6.667968 6.589843-11.238281v-2.246093c.042969-10.808594 6.875-20.425782 17.066407-24.027344v-27.171875c0-4.710938 3.820312-8.53125 8.53125-8.53125h179.199219v-17.066407h-204.796876c-4.714843 0-8.535156-3.824218-8.535156-8.535156v-8.53125c-.03125-10.585937 4.875-20.574218 13.269532-27.019531 7.453124-5.449219 12.566406-13.519531 14.308593-22.585937 10.820313-64.992188 68.609375-135.136719 143.089844-135.136719zm273.066406 270.074219h-409.601562c-4.710938 0-8.53125 3.820312-8.53125 8.53125v2.246093c-.246094 10.027344-5.292969 19.324219-13.570313 24.992188-2.207031 1.601562-3.511718 4.167969-3.496094 6.894531v8.535156h460.796876v-8.535156c.015624-2.726562-1.289063-5.292969-3.496094-6.894531-8.277344-5.667969-13.324219-14.964844-13.570313-24.992188v-2.246093c0-4.710938-3.820312-8.53125-8.53125-8.53125zm-401.066406-34.132813v17.066406h392.53125v-17.066406zm204.800781-17.066406v-17.070313h-17.066406v17.070313zm-6.402344-278.402344c14.140626 0 25.601563-11.460937 25.601563-25.601563 0-14.136718-11.460937-25.597656-25.601563-25.597656-14.136718 0-25.597656 11.460938-25.597656 25.597656 0 14.140626 11.460938 25.601563 25.597656 25.601563zm-34.132812 51.199219c.039062 4.28125 3.269531 7.859375 7.527344 8.328125h53.214844c4.253906-.46875 7.484374-4.046875 7.523437-8.328125 0-4.710938-3.820313-8.53125-8.53125-8.53125h-51.199219c-4.714844 0-8.535156 3.820312-8.535156 8.53125zm-36.265625 25.398437c-65.546875 0-116.574219 62.742188-126.25 120.871094-.792969 4.328125-2.164063 8.53125-4.070313 12.496094l147.386719.167969c4.710938 0 8.53125 3.820312 8.53125 8.535156 0 4.710937-3.820312 8.53125-8.53125 8.53125l-158.71875-.175782c-.355469-.046874-.703125-.117187-1.042969-.214843-1.417968 1.320312-2.714843 2.722656-4.265624 3.941406-4.199219 3.226563-6.652344 8.222656-6.640626 13.515625h443.734376c.011718-5.292969-2.441407-10.289062-6.640626-13.515625-10.910156-8.03125-18.320312-19.945313-20.710937-33.277344-9.675781-58.164062-60.703125-120.875-126.25-120.875zm0 0" fill="url(#a)"/></svg>