<?xml version="1.0" encoding="iso-8859-1"?>
<!-- Generator: Adobe Illustrator 19.0.0, SVG Export Plug-In . SVG Version: 6.00 Build 0)  -->
<svg version="1.1" id="Capa_1" xmlns="http://www.w3.org/2000/svg" xmlns:xlink="http://www.w3.org/1999/xlink" x="0px" y="0px"
	 viewBox="0 0 480.624 480.624" style="enable-background:new 0 0 480.624 480.624;" xml:space="preserve">
<linearGradient id="SVGID_1_" gradientUnits="userSpaceOnUse" x1="-33.3078" y1="560.0986" x2="-33.3078" y2="620.0366" gradientTransform="matrix(8 0 0 -8 506.7743 4946.6123)">
	<stop  offset="0" style="stop-color:#006DF0"/>
	<stop  offset="1" style="stop-color:#00E7F0"/>
</linearGradient>
<path style="fill:url(#SVGID_1_);" d="M456.604,311.824c-0.412-4.103-3.876-7.221-8-7.2h-6.736
	c9.806-25.529,14.802-52.652,14.736-80C456.776,100.74,356.487,0.172,232.603,0S8.152,100.116,7.98,224s100.116,224.451,224,224.623
	c17.364,0.024,34.671-1.968,51.575-5.936l-2.912,29.136c-0.442,4.396,2.764,8.318,7.16,8.76c0.266,0.027,0.533,0.04,0.8,0.04h176
	c4.418,0.022,8.018-3.542,8.04-7.96c0.001-0.281-0.012-0.561-0.04-0.84L456.604,311.824z M232.604,432.624
	c-114.875,0-208-93.125-208-208s93.125-208,208-208s208,93.125,208,208c0.069,27.468-5.372,54.671-16,80h-8
	c0-22.091-17.909-40-40-40s-40,17.909-40,40h-32c-4.109,0-7.549,3.112-7.96,7.2l-11.408,114.08
	C268.049,430.376,250.362,432.634,232.604,432.624L232.604,432.624z M400.604,304.624h-48c0-13.255,10.745-24,24-24
	S400.604,291.369,400.604,304.624z M297.404,464.624l14.4-144h24.8v16c0,4.418,3.582,8,8,8s8-3.582,8-8v-16h48v16
	c0,4.418,3.582,8,8,8s8-3.582,8-8v-16h24.8l14.4,144H297.404z"/>
<g>
	
		<linearGradient id="SVGID_2_" gradientUnits="userSpaceOnUse" x1="-34.2688" y1="560.0986" x2="-34.2688" y2="620.0366" gradientTransform="matrix(8 0 0 -8 506.7743 4946.6123)">
		<stop  offset="0" style="stop-color:#006DF0"/>
		<stop  offset="1" style="stop-color:#00E7F0"/>
	</linearGradient>
	<path style="fill:url(#SVGID_2_);" d="M248.604,352.624h-32c-4.418,0-8-3.582-8-8v-159.44L176.98,216.76
		c-3.124,3.123-8.188,3.123-11.312,0l-22.624-22.536c-3.13-3.118-3.14-8.183-0.022-11.314c0.007-0.007,0.015-0.015,0.022-0.022
		l83.92-83.92c3.124-3.123,8.188-3.123,11.312,0l83.928,83.92c3.13,3.118,3.14,8.183,0.022,11.314
		c-0.007,0.007-0.015,0.015-0.022,0.022L299.58,216.76c-3.124,3.123-8.188,3.123-11.312,0l-31.664-31.576v159.44
		C256.604,349.042,253.022,352.624,248.604,352.624z M224.604,336.624h16v-170.72c0.001-4.418,3.583-7.999,8.002-7.998
		c2.117,0,4.147,0.84,5.646,2.334l39.632,39.584l11.304-11.272l-72.584-72.616L160.02,188.52l11.304,11.304l39.632-39.552
		c3.129-3.119,8.194-3.111,11.314,0.018c1.487,1.491,2.325,3.509,2.334,5.614L224.604,336.624z"/>
	
		<linearGradient id="SVGID_3_" gradientUnits="userSpaceOnUse" x1="-34.2713" y1="560.0986" x2="-34.2713" y2="620.0366" gradientTransform="matrix(8 0 0 -8 506.7743 4946.6123)">
		<stop  offset="0" style="stop-color:#006DF0"/>
		<stop  offset="1" style="stop-color:#00E7F0"/>
	</linearGradient>
	<path style="fill:url(#SVGID_3_);" d="M232.604,400.624c-97.202,0-176-78.798-176-176s78.798-176,176-176s176,78.798,176,176
		c0,4.418-3.582,8-8,8s-8-3.582-8-8c0-88.366-71.634-160-160-160s-160,71.634-160,160s71.634,160,160,160c4.418,0,8,3.582,8,8
		S237.022,400.624,232.604,400.624z"/>
</g>
<g>
</g>
<g>
</g>
<g>
</g>
<g>
</g>
<g>
</g>
<g>
</g>
<g>
</g>
<g>
</g>
<g>
</g>
<g>
</g>
<g>
</g>
<g>
</g>
<g>
</g>
<g>
</g>
<g>
</g>
</svg>
